<?xml version="1.0"?>
<svg xmlns="http://www.w3.org/2000/svg" xmlns:xlink="http://www.w3.org/1999/xlink" xmlns:svgjs="http://svgjs.com/svgjs" version="1.1" width="512" height="512" x="0" y="0" viewBox="0 0 512 512" style="enable-background:new 0 0 512 512" xml:space="preserve" class=""><g>
<g xmlns="http://www.w3.org/2000/svg">
	<g>
		<path d="M504.5,182.397h-35v-15.824c0-4.142-3.358-7.5-7.5-7.5h-1v-17.74c0-4.142-3.358-7.5-7.5-7.5h-5.25v-6.51    c0-12.544-10.206-22.75-22.75-22.75H246.75c-4.273,0-7.75-3.477-7.75-7.75s3.477-7.75,7.75-7.75H425.5    c12.544,0,22.75-10.206,22.75-22.75v-21.25c0-4.142-3.358-7.5-7.5-7.5c-4.142,0-7.5,3.358-7.5,7.5v21.25    c0,4.273-3.477,7.75-7.75,7.75H246.75c-12.544,0-22.75,10.206-22.75,22.75s10.206,22.75,22.75,22.75H425.5    c4.273,0,7.75,3.477,7.75,7.75v6.51H428c-4.142,0-7.5,3.358-7.5,7.5v17.74h-1c-4.142,0-7.5,3.358-7.5,7.5v15.824h-27.911    c-4.142,0-7.5,3.358-7.5,7.5c0,4.142,3.358,7.5,7.5,7.5H497v87.516c0,4.142,3.358,7.5,7.5,7.5c4.142,0,7.5-3.358,7.5-7.5v-95.016    C512,185.755,508.642,182.397,504.5,182.397z M435.5,148.833H446v10.24h-10.5V148.833z M454.5,182.397H427v-8.324h27.5V182.397z" fill="#ffffff" data-original="#000000" style="" class=""/>
	</g>
</g>
<g xmlns="http://www.w3.org/2000/svg">
	<g>
		<path d="M504.5,311.591c-4.142,0-7.5,3.358-7.5,7.5v84.483v9.176H15v-9.176V197.397h97.496v63.922    c-30.516,4.896-51.465,21.016-51.465,40.084c0,23.327,31.055,41.599,70.7,41.599s70.7-18.272,70.7-41.599    c0-19.178-20.886-35.204-51.465-40.09v-63.917h198.945c4.142,0,7.5-3.358,7.5-7.5c0-4.142-3.358-7.5-7.5-7.5H150.966v-9.653    c23.533-8.027,40.513-30.337,40.513-56.552c0-32.945-26.803-59.748-59.748-59.748s-59.748,26.803-59.748,59.748    c0,26.216,16.979,48.526,40.513,56.552v9.653H7.5c-4.142,0-7.5,3.358-7.5,7.5v213.676v16.676v46.677c0,4.142,3.358,7.5,7.5,7.5    h174.911c4.142,0,7.5-3.358,7.5-7.5c0-4.142-3.358-7.5-7.5-7.5H131v-10.353c0-4.142-3.358-7.5-7.5-7.5c-4.142,0-7.5,3.358-7.5,7.5    v10.353h-9v-10.353c0-4.142-3.358-7.5-7.5-7.5c-4.142,0-7.5,3.358-7.5,7.5v10.353h-9v-10.353c0-4.142-3.358-7.5-7.5-7.5    c-4.142,0-7.5,3.358-7.5,7.5v10.353h-9v-10.353c0-4.142-3.358-7.5-7.5-7.5c-4.142,0-7.5,3.358-7.5,7.5v10.353H15V427.75h482    v31.677H216.589c-4.142,0-7.5,3.358-7.5,7.5c0,4.142,3.358,7.5,7.5,7.5H504.5c4.142,0,7.5-3.358,7.5-7.5V420.25v-16.676v-84.483    C512,314.948,508.642,311.591,504.5,311.591z M86.983,116.192c0-24.674,20.074-44.748,44.748-44.748s44.748,20.074,44.748,44.748    c0,24.674-20.074,44.748-44.748,44.748S86.983,140.865,86.983,116.192z M135.966,175.772v106.964c0,2.335-1.9,4.235-4.235,4.235    s-4.235-1.9-4.235-4.235V175.772c1.401,0.099,2.81,0.167,4.235,0.167S134.565,175.871,135.966,175.772z M131.731,301.972    c10.606,0,19.235-8.629,19.235-19.235v-6.189c20.948,3.947,36.465,14.221,36.465,24.856c0,12.581-22.875,26.599-55.7,26.599    s-55.7-14.018-55.7-26.599c0-10.739,15.296-20.926,36.465-24.866v6.199C112.496,293.343,121.125,301.972,131.731,301.972z" fill="#ffffff" data-original="#000000" style="" class=""/>
	</g>
</g>
<g xmlns="http://www.w3.org/2000/svg">
	<g>
		<path d="M299.701,213.621c-23.681,0-41.538,11.119-41.538,25.864c0,0.004,0,0.009,0,0.013v19.278    c0,14.745,17.857,25.865,41.537,25.865s41.538-11.12,41.538-25.865v-19.291h0.001C341.239,224.74,323.382,213.621,299.701,213.621    z M299.701,269.64c-14.771,0-24.932-5.605-26.358-9.869c7.073,3.517,16.174,5.578,26.358,5.578    c10.184,0,19.286-2.061,26.358-5.578C324.634,264.035,314.472,269.64,299.701,269.64z M299.701,250.349    c-15.945,0-26.527-6.533-26.537-10.858v-0.007c0-0.001,0-0.003,0-0.004c0.006-4.324,10.589-10.86,26.537-10.86    c15.953,0,26.538,6.539,26.538,10.864C326.239,243.809,315.655,250.349,299.701,250.349z" fill="#ffffff" data-original="#000000" style="" class=""/>
	</g>
</g>
<g xmlns="http://www.w3.org/2000/svg">
	<g>
		<path d="M400.169,237.985c-23.68,0-41.538,11.12-41.538,25.865v19.291c0,14.744,17.858,25.864,41.538,25.864    s41.537-11.119,41.537-25.864V263.85C441.706,249.105,423.849,237.985,400.169,237.985z M400.169,294.005    c-14.771,0-24.933-5.605-26.359-9.869c7.073,3.517,16.174,5.578,26.359,5.578c10.184,0,19.285-2.061,26.358-5.578    C425.101,288.4,414.94,294.005,400.169,294.005z M400.169,274.714c-15.953,0-26.538-6.539-26.538-10.864    s10.585-10.865,26.538-10.865s26.537,6.54,26.537,10.865S416.122,274.714,400.169,274.714z" fill="#ffffff" data-original="#000000" style="" class=""/>
	</g>
</g>
<g xmlns="http://www.w3.org/2000/svg">
	<g>
		<path d="M299.701,294.553c-23.681,0-41.538,11.12-41.538,25.865c0,0.004,0,0.009,0,0.013v19.278    c0.001,14.744,17.858,25.864,41.538,25.864s41.538-11.119,41.538-25.864v-19.291C341.239,305.673,323.382,294.553,299.701,294.553    z M299.701,350.573c-14.771,0-24.932-5.605-26.358-9.869c7.073,3.517,16.174,5.578,26.358,5.578    c10.184,0,19.286-2.061,26.359-5.578C324.634,344.968,314.472,350.573,299.701,350.573z M299.701,331.281    c-15.945,0-26.527-6.532-26.537-10.858v-0.007c0-0.001,0-0.003,0-0.004c0.006-4.324,10.589-10.86,26.537-10.86    c15.953,0,26.538,6.54,26.538,10.865C326.239,324.742,315.655,331.281,299.701,331.281z" fill="#ffffff" data-original="#000000" style="" class=""/>
	</g>
</g>
<g xmlns="http://www.w3.org/2000/svg">
	<g>
		<path d="M400.169,318.918c-23.68,0-41.538,11.119-41.538,25.864v19.291c0,14.745,17.857,25.864,41.538,25.864    c23.681,0,41.537-11.119,41.537-25.864v-19.291C441.706,330.037,423.849,318.918,400.169,318.918z M400.169,374.937    c-14.771,0-24.933-5.605-26.359-9.869c7.073,3.517,16.174,5.578,26.359,5.578c10.184,0,19.285-2.061,26.358-5.578    C425.101,369.332,414.94,374.937,400.169,374.937z M400.169,355.645c-15.953,0-26.538-6.539-26.538-10.864    s10.585-10.864,26.538-10.864s26.537,6.539,26.537,10.864S416.122,355.645,400.169,355.645z" fill="#ffffff" data-original="#000000" style="" class=""/>
	</g>
</g>
<g xmlns="http://www.w3.org/2000/svg">
	<g>
		<path d="M35.5,381c-4.142,0-7.5,3.358-7.5,7.5v0.938c0,4.142,3.358,7.5,7.5,7.5s7.5-3.358,7.5-7.5V388.5    C43,384.358,39.642,381,35.5,381z" fill="#ffffff" data-original="#000000" style="" class=""/>
	</g>
</g>
<g xmlns="http://www.w3.org/2000/svg">
	<g>
		<path d="M56.5,381c-4.142,0-7.5,3.358-7.5,7.5v0.938c0,4.142,3.358,7.5,7.5,7.5c4.142,0,7.5-3.358,7.5-7.5V388.5    C64,384.358,60.642,381,56.5,381z" fill="#ffffff" data-original="#000000" style="" class=""/>
	</g>
</g>
<g xmlns="http://www.w3.org/2000/svg">
	<g>
		<path d="M455.5,210c-4.142,0-7.5,3.358-7.5,7.5v0.938c0,4.142,3.358,7.5,7.5,7.5c4.142,0,7.5-3.358,7.5-7.5V217.5    C463,213.358,459.642,210,455.5,210z" fill="#ffffff" data-original="#000000" style="" class=""/>
	</g>
</g>
<g xmlns="http://www.w3.org/2000/svg">
	<g>
		<path d="M476.5,210c-4.142,0-7.5,3.358-7.5,7.5v0.938c0,4.142,3.358,7.5,7.5,7.5c4.142,0,7.5-3.358,7.5-7.5V217.5    C484,213.358,480.642,210,476.5,210z" fill="#ffffff" data-original="#000000" style="" class=""/>
	</g>
</g>
<g xmlns="http://www.w3.org/2000/svg">
</g>
<g xmlns="http://www.w3.org/2000/svg">
</g>
<g xmlns="http://www.w3.org/2000/svg">
</g>
<g xmlns="http://www.w3.org/2000/svg">
</g>
<g xmlns="http://www.w3.org/2000/svg">
</g>
<g xmlns="http://www.w3.org/2000/svg">
</g>
<g xmlns="http://www.w3.org/2000/svg">
</g>
<g xmlns="http://www.w3.org/2000/svg">
</g>
<g xmlns="http://www.w3.org/2000/svg">
</g>
<g xmlns="http://www.w3.org/2000/svg">
</g>
<g xmlns="http://www.w3.org/2000/svg">
</g>
<g xmlns="http://www.w3.org/2000/svg">
</g>
<g xmlns="http://www.w3.org/2000/svg">
</g>
<g xmlns="http://www.w3.org/2000/svg">
</g>
<g xmlns="http://www.w3.org/2000/svg">
</g>
</g></svg>
